<?xml version="1.0" encoding="UTF-8"?>
<!DOCTYPE svg PUBLIC "-//W3C//DTD SVG 1.1//EN" "http://www.w3.org/Graphics/SVG/1.1/DTD/svg11.dtd">
<!-- Creator: CorelDRAW 2020 (64-Bit) -->
<svg xmlns="http://www.w3.org/2000/svg" xml:space="preserve" width="190.87mm" height="42.3862mm" version="1.1" style="shape-rendering:geometricPrecision; text-rendering:geometricPrecision; image-rendering:optimizeQuality; fill-rule:evenodd; clip-rule:evenodd"
viewBox="0 0 18345.14 4073.87"
 xmlns:xlink="http://www.w3.org/1999/xlink"
 xmlns:xodm="http://www.corel.com/coreldraw/odm/2003">
 <defs>
  <style type="text/css">
   <![CDATA[
    .fil0 {fill:#336699;fill-rule:nonzero}
   ]]>
  </style>
 </defs>
 <g id="Layer_x0020_1">
  <metadata id="CorelCorpID_0Corel-Layer"/>
  <path class="fil0" d="M2741.35 3199.09c-152.58,152.58 -332.28,301.77 -539.12,447.56 -135.63,94.94 -268.7,176.32 -399.24,244.13 -130.54,67.82 -229.72,101.73 -297.54,101.73 -33.9,0 -63.57,-9.32 -89,-27.98 -25.43,-18.65 -38.15,-46.61 -38.15,-83.92 0,-54.25 20.35,-100.87 61.03,-139.86 40.69,-38.99 94.94,-70.35 162.76,-94.09 33.9,-13.56 81.37,-27.12 142.4,-40.68 77.99,-13.56 147.5,-35.6 208.53,-66.12 115.29,-57.64 250.06,-146.65 404.34,-267.01 154.27,-120.37 275.49,-228.03 363.64,-322.97 145.8,-155.96 256.84,-294.14 333.14,-414.51 76.28,-120.36 114.43,-244.97 114.43,-373.81 0,-71.21 -33.91,-122.92 -101.72,-155.13 -67.82,-32.21 -150.89,-48.32 -249.21,-48.32 -250.91,0 -479.79,44.08 -686.61,132.23 -91.55,40.69 -154.27,69.51 -188.18,86.46 -122.06,54.26 -222.09,96.63 -300.07,127.15 -88.15,33.91 -172.93,63.58 -254.3,89.01 -81.38,25.43 -135.63,43.23 -162.76,53.4l10.18 193.26c0,50.86 2.54,132.24 7.62,244.13 5.08,111.89 7.63,217 7.63,315.34 0,233.95 -16.95,423.83 -50.86,569.62 -13.56,47.47 -28.81,81.38 -45.77,101.73 -16.95,20.34 -49.16,30.52 -96.63,30.52 -30.52,0 -59.34,-10.18 -86.46,-30.52 -27.12,-20.35 -40.68,-45.78 -40.68,-76.29 0,-10.17 15.25,-67.81 45.77,-172.93 30.52,-105.11 45.78,-198.35 45.78,-279.73 0,-264.46 -11.87,-601.84 -35.61,-1012.11l-15.25 -233.96c-20.35,-223.78 -30.52,-400.09 -30.52,-528.94 0,-98.33 6.78,-222.93 20.35,-373.82 13.56,-150.88 23.73,-250.06 30.52,-297.53 -128.85,33.91 -293.3,94.94 -493.35,183.1 -57.64,23.73 -132.23,66.12 -223.78,127.15 -84.76,54.26 -142.41,81.38 -172.93,81.38 -27.12,0 -50.85,-11.87 -71.2,-35.6 -20.35,-23.74 -30.52,-52.55 -30.52,-86.46 0,-64.42 113.59,-147.5 340.76,-249.21 227.17,-101.73 474.69,-191.57 742.56,-269.56 240.73,-71.21 454.35,-123.76 640.83,-157.66 186.48,-33.91 378.05,-50.86 574.71,-50.86 179.71,0 329.74,34.75 450.12,104.26 120.36,69.51 180.55,166.99 180.55,292.44 0,298.37 -162.75,606.93 -488.25,925.65 145.8,-20.34 278.04,-30.52 396.71,-30.52 155.97,0 289.91,32.22 401.79,96.64 111.89,64.42 167.84,172.92 167.84,325.5 0,162.76 -59.34,326.35 -178.01,490.8 -118.67,164.45 -281.43,350.08 -488.25,556.92zm-483.17 -2548.08c-139.02,0 -313.64,16.11 -523.86,48.32 -210.22,32.21 -372.98,66.96 -488.25,104.26 -57.64,230.57 -86.46,423.83 -86.46,579.8 0,220.4 10.17,498.42 30.52,834.1 33.91,-3.38 89,-16.94 165.3,-40.68 76.28,-23.73 146.65,-49.16 211.06,-76.28 322.11,-135.63 589.98,-311.94 803.59,-528.95 213.61,-217 320.41,-440.78 320.41,-671.35 0,-81.38 -38.99,-143.26 -116.98,-185.63 -77.98,-42.39 -183.1,-63.58 -315.33,-63.58zm3590.71 1856.39c0,61.03 -44.93,194.97 -134.78,401.79 -89.86,206.84 -225.48,398.41 -406.88,574.72 -181.4,176.31 -404.34,264.47 -668.81,264.47 -217,0 -398.4,-67.82 -544.2,-203.44 -145.79,-135.63 -218.7,-344.15 -218.7,-625.58 0,-264.46 61.03,-526.39 183.1,-785.78 122.06,-259.38 281.43,-471.3 478.09,-635.75 196.66,-164.44 400.1,-246.66 610.32,-246.66 125.46,0 231.41,27.97 317.87,83.92 86.46,55.95 129.69,136.47 129.69,241.58 0,118.68 -66.96,233.96 -200.9,345.85 -133.92,111.89 -307.7,210.22 -521.31,294.98 -213.61,84.77 -434.01,145.8 -661.18,183.1 -40.68,155.97 -61.03,308.55 -61.03,457.74 0,196.67 46.62,349.25 139.86,457.74 93.25,108.5 226.33,162.76 399.25,162.76 261.08,0 472.99,-93.25 635.75,-279.73 162.75,-186.49 298.37,-396.71 406.88,-630.67 6.79,-13.56 18.65,-39.84 35.6,-78.83 16.95,-38.99 32.22,-58.49 45.78,-58.49 23.73,0 35.6,25.43 35.6,76.29zm-762.9 -1047.71c-128.85,0 -252.6,42.38 -371.28,127.15 -118.68,84.76 -217.85,186.48 -297.54,305.16 -79.68,118.67 -131.39,223.78 -155.12,315.33 155.96,-16.95 320.41,-61.03 493.34,-132.23 172.93,-71.21 317.87,-149.2 434.85,-233.96 116.98,-84.76 175.46,-154.27 175.46,-208.53 0,-54.25 -27.97,-96.63 -83.92,-127.15 -55.95,-30.52 -121.22,-45.77 -195.81,-45.77zm1724.14 2441.27c-145.8,0 -244.13,-13.56 -294.99,-40.69 -50.85,-27.12 -76.28,-64.42 -76.28,-111.89 0,-30.52 38.99,-83.93 116.98,-160.21 77.98,-76.29 130.53,-114.43 157.66,-114.43 40.68,0 61.03,8.48 61.03,25.42 0,13.57 -8.48,27.13 -25.43,40.69 -16.95,13.56 -25.43,25.43 -25.43,35.6 0,13.56 21.19,27.12 63.58,40.68 42.38,13.56 94.09,20.35 155.12,20.35 142.41,0 285.67,-26.28 429.77,-78.83 144.1,-52.55 261.93,-121.22 353.48,-205.98 91.55,-84.77 137.32,-174.62 137.32,-269.56 0,-91.55 -28.81,-164.45 -86.45,-218.7 -57.65,-54.26 -129.7,-94.09 -216.16,-119.53 -86.46,-25.43 -231.41,-61.88 -434.85,-109.35 -223.78,-50.86 -397.55,-95.79 -521.31,-134.78 -123.76,-38.99 -222.94,-88.15 -297.54,-147.5 -74.59,-59.33 -111.89,-134.78 -111.89,-226.33 0,-162.75 79.68,-311.94 239.04,-447.56 159.36,-135.63 342.45,-242.44 549.29,-320.42 206.83,-77.99 366.19,-116.98 478.08,-116.98 115.29,0 172.93,33.91 172.93,101.73 0,40.68 -13.56,85.61 -40.68,134.78 -27.13,49.16 -67.82,73.75 -122.06,73.75 -20.35,0 -42.39,-7.63 -66.13,-22.89 -23.73,-15.25 -47.46,-22.88 -71.2,-22.88 -67.81,0 -174.62,22.04 -320.41,66.12 -145.8,44.08 -278.04,110.19 -396.71,198.36 -118.68,88.15 -178.01,194.96 -178.01,320.41 0,81.38 46.61,141.57 139.86,180.56 93.24,38.99 267.01,87.31 521.31,144.95 30.52,10.17 61.03,17.8 91.55,22.88 30.52,5.08 57.65,11.02 81.38,17.8 261.08,61.03 461.13,130.54 600.15,208.53 139.02,77.99 208.53,194.97 208.53,350.94 0,149.19 -60.19,292.44 -180.56,429.76 -120.36,137.33 -278.88,247.52 -475.54,330.59 -196.66,83.07 -401.79,124.61 -615.4,124.61zm3616.13 -2075.08c-311.94,54.25 -486.55,84.76 -523.86,91.55l-330.59 55.94c0,176.32 2.55,361.11 7.63,554.38 5.08,193.26 12.72,362.8 22.88,508.59 13.56,196.66 37.3,347.55 71.21,452.65 33.9,105.11 52.55,164.45 55.94,178.01 0,33.91 -21.18,65.27 -63.57,94.09 -42.39,28.81 -82.22,43.23 -119.53,43.23 -20.34,0 -37.29,-5.94 -50.85,-17.81 -13.56,-11.86 -25.43,-31.36 -35.6,-58.48 -20.35,-47.47 -39.85,-135.63 -58.49,-264.47 -18.65,-128.84 -33.05,-271.25 -43.23,-427.22 -10.17,-139.02 -17.8,-300.92 -22.88,-485.71 -5.08,-184.8 -7.63,-363.65 -7.63,-536.57 -189.87,30.52 -384.84,67.81 -584.89,111.89 -179.7,37.3 -286.51,55.95 -320.41,55.95 -40.69,0 -78.84,-11.86 -114.44,-35.6 -35.6,-23.73 -53.4,-55.95 -53.4,-96.63 0,-44.08 15.26,-72.9 45.78,-86.46 30.52,-13.56 81.37,-20.35 152.58,-20.35 50.85,0 125.45,-9.32 223.78,-27.97 98.32,-18.65 161.06,-31.36 188.18,-38.15 227.17,-44.08 381.45,-72.9 462.82,-86.46 0,-71.2 -3.39,-164.44 -10.17,-279.73 -6.79,-155.97 -10.17,-274.64 -10.17,-356.01 0,-132.24 4.24,-234.8 12.71,-307.71 8.48,-72.9 24.59,-138.17 48.33,-195.81 27.12,-67.82 77.98,-101.72 152.58,-101.72 30.52,0 50.85,5.08 61.03,15.25 10.17,10.17 15.25,28.82 15.25,55.95 0,20.35 -8.48,79.68 -25.43,178.01 -16.95,98.32 -25.43,228.86 -25.43,391.62 0,125.45 3.39,266.17 10.18,422.14l5.08 137.32c152.58,-23.73 454.35,-86.46 905.31,-188.18 27.12,-6.79 50.01,-30.52 68.65,-71.2 18.66,-40.69 38.15,-61.03 58.49,-61.03 37.29,0 75.44,21.18 114.43,63.57 38.99,42.39 58.48,85.62 58.48,129.7 0,57.64 -24.58,101.72 -73.74,132.23 -49.17,30.52 -138.17,54.26 -267.02,71.21zm3214.34 -1007.03c-183.1,40.69 -391.62,62.73 -625.57,66.13l20.34 157.66c50.86,372.97 94.09,727.3 129.7,1062.97 35.6,335.68 53.4,657.79 53.4,966.33 0,366.19 -69.5,624.74 -208.52,775.61 -139.02,150.89 -362.81,226.33 -671.35,226.33 -196.67,0 -423.84,-45.77 -681.53,-137.32 -257.69,-91.55 -478.93,-205.13 -663.72,-340.76 -184.79,-135.63 -277.19,-261.08 -277.19,-376.37 0,-50.85 25.43,-100.02 76.29,-147.5 50.86,-47.46 108.5,-88.15 172.93,-122.06 64.42,-33.9 110.19,-50.85 137.32,-50.85 44.08,0 72.9,11.87 86.46,35.6 16.95,27.12 25.43,47.47 25.43,61.03 0,16.95 -11.87,32.21 -35.6,45.77 -54.26,27.13 -91.55,49.17 -111.89,66.13 -20.35,16.95 -30.52,42.38 -30.52,76.28 0,81.38 68.66,172.93 205.98,274.64 137.33,101.72 306,189.04 506.05,261.93 200.05,72.9 386.54,109.35 559.46,109.35 149.19,0 269.55,-16.95 361.1,-50.85 91.55,-33.91 162.76,-105.96 213.61,-216.16 50.86,-110.19 76.29,-275.49 76.29,-495.89 0,-369.58 -57.64,-974.81 -172.93,-1815.69 -10.17,-77.99 -19.49,-148.34 -27.97,-211.07 -8.48,-62.72 -14.41,-116.12 -17.8,-160.21 -230.57,0 -415.36,-1.69 -554.37,-5.08 -257.7,-6.78 -474.69,-22.04 -651.01,-45.77 -50.85,-6.79 -92.39,-26.28 -124.6,-58.49 -32.22,-32.21 -48.32,-72.05 -48.32,-119.52 0,-20.35 10.17,-40.68 30.52,-61.03 20.34,-20.35 44.08,-30.52 71.2,-30.52 67.81,0 145.79,5.08 233.96,15.25 244.13,23.74 508.59,35.61 793.41,35.61l203.43 0c-13.56,-88.16 -18.65,-150.89 -15.25,-188.19 3.39,-30.52 22.88,-59.33 58.48,-86.45 35.6,-27.13 72.06,-40.69 109.35,-40.69 40.69,0 72.9,30.52 96.63,91.55 10.18,27.13 27.13,101.73 50.86,223.79 159.37,0 285.67,-5.94 378.91,-17.8 93.24,-11.87 146.65,-19.5 160.21,-22.89 94.94,-13.56 157.66,-20.34 188.18,-20.34 33.91,0 61.88,5.08 83.92,15.25 22.04,10.17 33.06,25.43 33.06,45.78 0,47.47 -20.35,91.55 -61.03,132.23 -40.68,40.68 -86.46,66.12 -137.33,76.28zm930.74 2944.79c-227.17,0 -395.02,-62.72 -503.52,-188.18 -108.5,-125.46 -162.75,-281.43 -162.75,-467.91 0,-162.76 29.67,-364.5 89,-605.23 59.34,-240.73 143.26,-456.05 251.76,-645.92 6.79,-13.57 34.75,-63.58 83.92,-150.04 49.17,-86.46 104.26,-152.58 165.3,-198.35 61.03,-45.78 125.46,-68.66 193.27,-68.66 30.52,0 58.48,7.63 83.92,22.88 25.43,15.26 38.15,34.75 38.15,58.49 0,6.78 -9.33,22.88 -27.98,48.32 -18.65,25.42 -33.05,44.92 -43.23,58.48 -115.28,139.02 -208.53,276.33 -279.73,411.97 -94.94,172.92 -168.69,344.15 -221.24,513.68 -52.55,169.53 -78.83,354.33 -78.83,554.38 0,267.86 162.76,401.79 488.25,401.79 152.58,0 294.14,-44.08 424.69,-132.24 130.54,-88.15 234.8,-195.8 312.78,-322.96 77.99,-127.15 116.98,-243.27 116.98,-348.39 0,-118.67 -38.99,-222.09 -116.98,-310.24 -77.98,-88.15 -184.79,-181.39 -320.41,-279.73 -88.15,-64.42 -152.58,-116.98 -193.26,-157.66 -40.69,-40.68 -61.03,-74.59 -61.03,-101.72 0,-40.69 28.81,-73.75 86.45,-99.18 57.65,-25.43 125.46,-38.15 203.44,-38.15 44.08,0 72.9,2.55 86.46,7.63 13.56,5.08 20.35,14.41 20.35,27.97 0,6.79 -5.94,17.8 -17.8,33.06 -11.87,15.25 -17.81,27.97 -17.81,38.15 0,10.17 33.91,44.08 101.73,101.72 135.63,111.89 249.21,225.48 340.76,340.76 91.55,115.29 137.32,250.91 137.32,406.88 0,132.24 -49.16,284.82 -147.49,457.74 -98.33,172.93 -237.35,321.27 -417.05,445.03 -179.7,123.76 -384.84,185.63 -615.4,185.63zm2548.07 -157.66c-149.19,111.89 -261.08,167.84 -335.68,167.84 -37.3,0 -67.82,-13.57 -91.55,-40.69 -23.74,-27.12 -35.6,-59.33 -35.6,-96.63 0,-37.3 16.1,-74.59 48.32,-111.89 32.21,-37.29 80.52,-69.51 144.95,-96.63 233.96,-101.72 447.57,-248.37 640.83,-439.94 193.26,-191.57 344.15,-394.16 452.65,-607.77 108.5,-213.61 162.75,-401.79 162.75,-564.55 0,-64.42 -14.41,-112.74 -43.23,-144.95 -28.81,-32.21 -75.44,-48.32 -139.86,-48.32 -142.4,0 -288.2,57.64 -437.39,172.93 -149.19,115.28 -288.2,266.17 -417.05,452.64 -98.32,142.41 -193.26,313.64 -284.81,513.69 -91.55,200.05 -161.06,411.97 -208.53,635.75 -27.12,118.67 -84.76,178.01 -172.93,178.01 -23.73,0 -49.16,-21.19 -76.28,-63.58 -27.12,-42.38 -40.68,-80.52 -40.68,-114.43 0,-393.31 -13.57,-971.43 -40.69,-1734.32 -27.12,-762.9 -45.77,-1198.6 -55.95,-1307.1 0,-20.34 -1.69,-39.84 -5.08,-58.48 -3.39,-18.65 -6.78,-36.45 -10.17,-53.4 -3.39,-20.35 -6.79,-41.54 -10.17,-63.58 -3.39,-22.04 -5.09,-43.23 -5.09,-63.58 0,-77.98 35.61,-116.97 106.81,-116.97 57.64,0 104.26,36.45 139.86,109.35 35.6,72.89 53.4,155.12 53.4,246.66l0 269.56c0,806.98 11.87,1427.47 35.6,1861.47 13.56,213.61 27.13,332.28 40.69,356.02 37.29,-111.89 95.79,-237.35 175.46,-376.36 79.68,-139.02 163.6,-267.87 251.76,-386.54 159.36,-217 332.28,-390.78 518.77,-521.32 186.49,-130.54 356.01,-195.81 508.59,-195.81 105.12,0 190.73,33.91 256.84,101.73 66.13,67.81 99.18,166.14 99.18,294.98 0,288.21 -115.28,602.7 -345.84,943.46 -230.57,340.76 -523.86,641.68 -879.88,902.76z"/>
 </g>
</svg>
